<svg id="svg" version="1.1" xmlns="http://www.w3.org/2000/svg" xmlns:xlink="http://www.w3.org/1999/xlink" width="400" height="400" viewBox="0, 0, 400,400"><g id="svgg"><path id="path0" d="M71.510 167.824 C 71.219 168.114,67.381 168.707,63.500 169.061 C 62.235 169.177,61.200 169.435,61.200 169.636 C 61.200 169.836,60.761 170.000,60.224 170.000 C 59.687 170.000,59.136 170.180,59.000 170.400 C 58.864 170.620,58.144 170.800,57.400 170.800 C 56.656 170.800,55.936 170.980,55.800 171.200 C 55.664 171.420,55.203 171.600,54.776 171.600 C 54.349 171.600,54.000 171.780,54.000 172.000 C 54.000 172.220,53.460 172.400,52.800 172.400 C 52.140 172.400,51.599 172.535,51.597 172.700 C 51.593 173.059,49.656 174.000,48.920 174.000 C 48.634 174.000,48.400 174.138,48.400 174.306 C 48.400 174.474,47.720 174.906,46.889 175.266 C 46.057 175.626,44.662 176.564,43.789 177.351 C 42.915 178.138,42.010 178.786,41.777 178.791 C 41.544 178.796,40.781 179.565,40.082 180.500 C 39.382 181.435,37.499 183.676,35.897 185.480 C 30.459 191.604,28.203 196.509,26.823 205.208 C 26.419 207.752,26.715 210.657,27.943 216.200 C 29.518 223.309,35.996 231.922,43.681 237.127 C 54.187 244.241,54.971 248.629,47.219 256.916 C 41.237 263.311,46.015 267.276,56.200 264.369 C 60.062 263.266,65.858 261.427,66.200 261.195 C 66.420 261.046,67.460 260.692,68.510 260.407 C 69.561 260.123,70.517 259.735,70.634 259.545 C 70.751 259.355,71.109 259.200,71.428 259.200 C 71.747 259.200,72.772 258.851,73.704 258.425 C 74.637 257.999,76.570 257.170,78.000 256.582 C 80.702 255.472,87.821 252.128,92.510 249.765 C 94.001 249.014,95.486 248.400,95.810 248.400 C 96.135 248.400,96.400 248.220,96.400 248.000 C 96.400 247.780,96.850 247.600,97.400 247.600 C 97.950 247.600,98.400 247.420,98.400 247.200 C 98.400 246.980,98.670 246.800,99.000 246.800 C 99.330 246.800,99.600 246.620,99.600 246.400 C 99.600 246.180,99.834 246.000,100.120 246.000 C 100.856 246.000,102.793 245.059,102.797 244.700 C 102.799 244.535,103.120 244.400,103.512 244.400 C 103.903 244.400,104.483 244.040,104.800 243.600 C 105.117 243.160,105.579 242.800,105.826 242.800 C 106.074 242.800,106.602 242.440,107.000 242.000 C 107.398 241.560,107.960 241.200,108.248 241.200 C 108.536 241.200,108.965 240.840,109.200 240.400 C 109.435 239.960,109.892 239.600,110.214 239.600 C 110.536 239.600,110.800 239.450,110.800 239.268 C 110.800 239.085,111.295 238.681,111.900 238.370 C 112.505 238.060,113.291 237.489,113.647 237.103 C 114.003 236.716,114.501 236.400,114.753 236.400 C 115.229 236.400,121.200 230.614,121.200 230.152 C 121.200 230.009,121.605 229.497,122.100 229.014 C 123.524 227.625,124.400 226.433,124.400 225.884 C 124.400 225.605,124.760 225.117,125.200 224.800 C 125.640 224.483,126.004 223.858,126.009 223.412 C 126.014 222.965,126.370 222.150,126.800 221.600 C 127.230 221.050,127.586 220.015,127.591 219.300 C 127.596 218.585,127.780 218.000,128.000 218.000 C 128.220 218.000,128.400 217.561,128.400 217.024 C 128.400 216.487,128.580 215.936,128.800 215.800 C 129.044 215.649,129.200 212.594,129.200 207.971 C 129.200 203.713,129.025 200.041,128.800 199.595 C 128.580 199.158,128.220 198.442,128.000 198.005 C 127.780 197.568,127.600 196.751,127.600 196.189 C 127.600 195.627,127.240 194.780,126.800 194.308 C 126.360 193.836,126.000 193.073,126.000 192.613 C 126.000 192.153,125.640 191.517,125.200 191.200 C 124.760 190.883,124.400 190.303,124.400 189.912 C 124.400 189.520,124.220 189.200,124.000 189.200 C 123.780 189.200,123.599 188.975,123.598 188.700 C 123.597 188.425,123.090 187.660,122.472 187.000 C 121.854 186.340,121.024 185.305,120.628 184.700 C 120.232 184.095,119.659 183.600,119.354 183.600 C 119.049 183.600,118.800 183.324,118.800 182.987 C 118.800 182.651,118.510 182.264,118.157 182.128 C 117.803 181.992,116.827 181.188,115.988 180.341 C 115.149 179.493,114.218 178.800,113.920 178.800 C 113.621 178.800,113.117 178.440,112.800 178.000 C 112.483 177.560,111.943 177.200,111.600 177.200 C 111.257 177.200,110.717 176.840,110.400 176.400 C 110.083 175.960,109.503 175.600,109.112 175.600 C 108.720 175.600,108.399 175.465,108.397 175.300 C 108.394 174.989,106.497 174.000,105.904 174.000 C 105.718 174.000,105.180 173.640,104.708 173.200 C 104.236 172.760,103.354 172.400,102.748 172.400 C 102.143 172.400,101.536 172.220,101.400 172.000 C 101.264 171.780,100.803 171.600,100.376 171.600 C 99.949 171.600,99.600 171.420,99.600 171.200 C 99.600 170.980,99.058 170.800,98.395 170.800 C 97.732 170.800,96.787 170.592,96.295 170.338 C 95.803 170.083,95.087 169.723,94.705 169.538 C 94.323 169.352,93.108 169.200,92.005 169.200 C 90.902 169.200,90.000 169.035,90.000 168.833 C 90.000 168.196,72.114 167.219,71.510 167.824 M85.098 172.601 C 87.571 172.927,90.271 173.366,91.098 173.575 C 91.924 173.784,93.320 174.139,94.200 174.365 C 112.976 179.171,125.900 193.796,125.090 209.320 C 124.881 213.332,124.733 213.999,123.077 218.400 C 118.117 231.575,92.408 248.584,62.000 258.808 C 50.298 262.743,46.571 262.853,50.028 259.164 C 59.146 249.433,58.134 242.824,46.257 234.533 C 20.802 216.765,27.137 185.573,58.268 175.396 C 63.392 173.721,63.683 173.644,66.600 173.204 C 68.140 172.972,70.390 172.628,71.600 172.439 C 75.081 171.895,80.223 171.957,85.098 172.601 M66.729 191.213 C 65.919 191.640,65.143 192.349,65.004 192.789 C 64.864 193.228,63.926 193.998,62.919 194.501 C 60.932 195.491,59.600 197.412,59.600 199.286 C 59.600 200.152,59.283 200.545,58.100 201.149 C 55.394 202.530,55.054 203.191,55.309 206.564 C 55.505 209.161,55.436 209.624,54.763 210.233 C 52.905 211.915,52.925 215.703,54.801 217.401 C 55.407 217.950,55.526 218.449,55.360 219.749 C 54.907 223.285,57.527 226.290,61.467 226.755 C 62.906 226.924,64.334 227.383,65.084 227.917 C 66.749 229.103,70.428 229.146,72.304 228.002 L 73.608 227.207 73.504 209.719 L 73.400 192.232 72.041 191.316 C 70.395 190.207,68.695 190.174,66.729 191.213 M81.063 196.270 C 80.918 196.415,80.800 196.773,80.800 197.067 C 80.800 197.663,81.831 197.797,82.172 197.245 C 82.444 196.805,81.425 195.908,81.063 196.270 M85.778 199.235 C 85.366 199.902,86.293 200.667,86.845 200.115 C 87.307 199.653,87.018 198.800,86.400 198.800 C 86.206 198.800,85.926 198.996,85.778 199.235 M79.378 203.635 C 78.966 204.302,79.893 205.067,80.445 204.515 C 80.907 204.053,80.618 203.200,80.000 203.200 C 79.806 203.200,79.526 203.396,79.378 203.635 M84.178 203.635 C 83.766 204.302,84.693 205.067,85.245 204.515 C 85.707 204.053,85.418 203.200,84.800 203.200 C 84.606 203.200,84.326 203.396,84.178 203.635 M141.800 205.600 C 141.664 205.820,141.197 206.000,140.763 206.000 C 139.715 206.000,137.403 208.352,137.002 209.826 C 136.475 211.764,136.298 220.458,136.776 220.936 C 137.009 221.169,137.200 221.795,137.200 222.326 C 137.200 222.929,137.756 223.801,138.678 224.646 L 140.156 226.000 147.778 226.003 L 155.400 226.006 155.900 227.083 C 156.572 228.531,156.533 231.124,155.829 231.829 C 155.368 232.289,153.543 232.400,146.400 232.400 C 135.921 232.400,136.400 232.200,136.400 236.571 L 136.400 239.600 148.166 239.600 L 159.932 239.600 161.208 238.300 C 161.909 237.585,162.731 236.280,163.035 235.400 C 163.694 233.494,163.832 223.600,163.200 223.600 C 162.980 223.600,162.800 223.240,162.800 222.800 C 162.800 222.360,162.620 222.000,162.400 222.000 C 162.180 222.000,162.000 221.717,162.000 221.371 C 162.000 221.026,161.743 220.486,161.429 220.171 C 161.114 219.857,160.574 219.600,160.229 219.600 C 159.883 219.600,159.600 219.420,159.600 219.200 C 159.600 218.948,156.831 218.799,152.100 218.797 L 144.600 218.794 144.100 217.717 C 143.466 216.352,143.456 214.304,144.080 213.680 C 144.423 213.337,146.999 213.200,153.136 213.200 C 160.834 213.200,161.766 213.128,162.243 212.500 C 162.989 211.518,162.978 206.521,162.229 205.771 C 161.531 205.074,142.225 204.912,141.800 205.600 M171.500 205.757 C 170.853 206.248,170.800 207.548,170.800 222.901 C 170.800 241.763,170.451 240.087,174.400 240.175 C 178.074 240.256,178.000 240.410,178.000 232.704 L 178.000 226.000 179.720 226.000 C 181.593 226.000,183.592 226.741,183.597 227.438 C 183.599 227.679,183.960 228.202,184.400 228.600 C 184.840 228.998,185.200 229.641,185.200 230.029 C 185.200 230.416,185.335 230.793,185.500 230.867 C 185.665 230.940,186.233 231.855,186.763 232.900 C 187.292 233.945,187.877 234.800,188.063 234.800 C 188.248 234.800,188.400 235.160,188.400 235.600 C 188.400 236.040,188.580 236.400,188.800 236.400 C 189.020 236.400,189.200 236.760,189.200 237.200 C 189.200 237.640,189.380 238.000,189.600 238.000 C 189.820 238.000,190.000 238.274,190.000 238.610 C 190.000 238.945,190.495 239.419,191.100 239.662 C 192.344 240.162,197.221 240.361,196.938 239.900 C 196.836 239.735,197.033 239.600,197.376 239.600 C 198.698 239.600,197.632 234.445,196.054 233.200 C 195.579 232.826,194.800 231.213,194.800 230.605 C 194.800 230.272,194.620 230.000,194.400 230.000 C 194.180 230.000,194.000 229.758,194.000 229.462 C 194.000 229.166,193.640 228.598,193.200 228.200 C 192.760 227.802,192.400 227.221,192.400 226.909 C 192.400 226.598,192.128 226.071,191.796 225.739 C 191.464 225.407,191.312 224.942,191.458 224.706 C 191.615 224.451,191.536 224.393,191.262 224.562 C 191.008 224.719,190.800 224.649,190.800 224.407 C 190.800 224.165,190.440 223.580,189.999 223.107 C 189.559 222.635,189.349 222.147,189.531 222.024 C 189.714 221.901,190.113 221.228,190.417 220.529 C 190.721 219.830,191.116 219.348,191.295 219.459 C 191.474 219.569,191.570 219.503,191.510 219.311 C 191.359 218.831,193.141 215.414,194.054 214.434 C 194.464 213.994,194.800 213.443,194.800 213.211 C 194.800 212.801,195.595 211.204,196.001 210.800 C 196.716 210.087,197.238 208.316,197.129 206.973 L 197.000 205.400 194.171 205.284 C 190.920 205.151,190.114 205.668,188.409 208.983 C 187.895 209.982,187.323 210.800,187.137 210.800 C 186.952 210.800,186.800 211.160,186.800 211.600 C 186.800 212.040,186.620 212.400,186.400 212.400 C 186.180 212.400,186.000 212.678,186.000 213.017 C 186.000 213.356,185.640 214.020,185.200 214.492 C 184.760 214.964,184.400 215.587,184.400 215.875 C 184.400 216.164,184.220 216.400,184.000 216.400 C 183.780 216.400,183.600 216.683,183.600 217.029 C 183.600 218.234,182.522 218.800,180.229 218.800 L 178.000 218.800 178.000 212.571 C 178.000 207.707,177.875 206.218,177.429 205.771 C 176.693 205.036,172.463 205.026,171.500 205.757 M206.215 205.624 C 206.343 205.831,206.167 206.000,205.824 206.000 C 204.961 206.000,204.916 211.773,205.771 212.629 C 206.236 213.093,208.187 213.200,216.171 213.200 C 225.755 213.200,226.000 213.220,226.000 214.005 C 226.000 214.448,226.209 215.145,226.464 215.554 C 226.842 216.158,226.762 216.530,226.037 217.548 L 225.146 218.800 215.873 218.813 C 203.938 218.829,205.200 217.542,205.200 229.697 L 205.200 239.507 206.100 239.774 C 207.309 240.133,210.387 240.143,211.500 239.791 C 212.384 239.512,212.400 239.391,212.400 233.153 L 212.400 226.800 216.300 226.803 C 220.387 226.806,221.200 227.251,221.200 229.480 C 221.200 229.766,221.380 230.000,221.600 230.000 C 221.820 230.000,222.000 230.236,222.000 230.525 C 222.000 230.813,222.360 231.436,222.800 231.908 C 223.240 232.380,223.600 233.044,223.600 233.383 C 223.600 233.722,223.780 234.000,224.000 234.000 C 224.220 234.000,224.400 234.360,224.400 234.800 C 224.400 235.240,224.580 235.600,224.800 235.600 C 225.020 235.600,225.200 235.878,225.200 236.217 C 225.200 236.556,225.560 237.220,226.000 237.692 C 226.440 238.164,226.800 238.787,226.800 239.075 C 226.800 239.372,227.246 239.600,227.824 239.600 C 228.387 239.600,228.764 239.735,228.662 239.900 C 228.428 240.281,233.164 240.201,234.100 239.808 C 234.813 239.509,235.145 236.619,234.498 236.333 C 234.332 236.260,233.585 234.985,232.838 233.500 C 232.091 232.015,231.327 230.800,231.140 230.800 C 230.953 230.800,230.800 230.440,230.800 230.000 C 230.800 229.560,230.620 229.200,230.400 229.200 C 230.180 229.200,230.000 228.964,230.000 228.675 C 230.000 228.387,229.640 227.764,229.200 227.292 C 228.306 226.332,228.205 226.000,228.809 226.000 C 229.559 226.000,232.400 223.901,232.400 223.347 C 232.400 223.046,232.580 222.800,232.800 222.800 C 233.020 222.800,233.200 222.260,233.200 221.600 C 233.200 220.940,233.380 220.400,233.600 220.400 C 233.841 220.400,234.000 218.741,234.000 216.224 C 234.000 213.871,233.825 211.939,233.600 211.800 C 233.380 211.664,233.200 211.220,233.200 210.814 C 233.200 209.570,231.509 206.800,230.749 206.800 C 230.363 206.800,229.936 206.620,229.800 206.400 C 229.664 206.180,229.113 206.000,228.576 206.000 C 228.039 206.000,227.600 205.815,227.600 205.589 C 227.600 205.317,223.949 205.190,216.791 205.213 C 210.157 205.234,206.072 205.393,206.215 205.624 M242.700 205.757 C 242.053 206.248,242.000 207.548,242.000 222.901 C 242.000 241.763,241.651 240.087,245.600 240.175 C 249.499 240.261,249.200 241.697,249.200 222.875 C 249.200 209.081,249.105 206.248,248.629 205.771 C 247.893 205.036,243.663 205.026,242.700 205.757 M259.407 205.588 C 259.267 205.815,258.791 206.000,258.348 206.000 C 256.388 206.000,256.382 206.060,256.409 222.993 C 256.425 232.957,256.577 238.738,256.817 238.589 C 257.028 238.459,257.200 238.633,257.200 238.976 C 257.200 239.403,257.580 239.600,258.400 239.600 C 259.060 239.600,259.600 239.735,259.600 239.900 C 259.600 240.232,278.791 240.143,279.124 239.809 C 279.239 239.694,279.933 239.600,280.667 239.600 C 281.400 239.600,282.000 239.463,282.000 239.295 C 282.000 239.127,282.390 238.812,282.867 238.595 C 283.344 238.378,283.856 237.930,284.005 237.600 C 284.154 237.270,284.484 236.597,284.738 236.105 C 285.552 234.530,285.343 225.079,284.460 223.507 C 284.053 222.782,283.845 221.921,283.998 221.594 C 284.151 221.268,284.484 220.597,284.738 220.105 C 285.317 218.984,285.372 210.000,284.800 210.000 C 284.580 210.000,284.400 209.640,284.400 209.200 C 284.400 208.760,284.241 208.400,284.047 208.400 C 283.852 208.400,283.599 208.040,283.484 207.600 C 283.369 207.160,282.988 206.800,282.637 206.800 C 282.287 206.800,282.000 206.620,282.000 206.400 C 282.000 206.180,281.359 206.000,280.576 206.000 C 279.793 206.000,279.257 205.832,279.384 205.626 C 279.525 205.397,275.724 205.237,269.639 205.214 C 263.190 205.190,259.572 205.322,259.407 205.588 M293.100 205.757 C 292.543 206.179,292.400 206.900,292.400 209.277 C 292.400 213.438,291.682 213.242,306.400 213.110 L 318.600 213.000 318.717 209.656 C 318.816 206.824,318.724 206.230,318.117 205.769 C 317.082 204.985,294.132 204.973,293.100 205.757 M326.700 205.757 C 325.694 206.520,326.185 209.985,327.300 209.997 C 327.465 209.999,327.600 210.360,327.600 210.800 C 327.600 211.240,327.780 211.600,328.000 211.600 C 328.220 211.600,328.400 211.878,328.400 212.217 C 328.400 212.556,328.760 213.220,329.200 213.692 C 329.640 214.164,330.000 214.787,330.000 215.075 C 330.000 215.364,330.180 215.600,330.400 215.600 C 330.620 215.600,330.800 215.960,330.800 216.400 C 330.800 216.840,330.980 217.200,331.200 217.200 C 331.420 217.200,331.600 217.560,331.600 218.000 C 331.600 218.440,331.780 218.800,332.000 218.800 C 332.220 218.800,332.400 219.160,332.400 219.600 C 332.400 220.040,332.580 220.400,332.800 220.400 C 333.020 220.400,333.200 220.636,333.200 220.925 C 333.200 221.213,333.515 221.807,333.900 222.245 C 334.889 223.370,335.600 224.686,335.600 225.395 C 335.600 225.728,335.780 226.000,336.000 226.000 C 336.220 226.000,336.404 226.225,336.409 226.500 C 336.414 226.775,336.770 227.450,337.200 228.000 C 337.885 228.876,337.983 229.656,337.991 234.300 L 338.000 239.600 341.429 239.600 C 346.049 239.600,346.000 239.666,346.000 233.429 C 346.000 230.343,346.155 228.400,346.400 228.400 C 346.620 228.400,346.800 228.040,346.800 227.600 C 346.800 227.160,346.980 226.800,347.200 226.800 C 347.420 226.800,347.600 226.564,347.600 226.275 C 347.600 225.987,347.960 225.364,348.400 224.892 C 348.840 224.420,349.200 223.843,349.200 223.611 C 349.200 223.202,349.995 221.605,350.400 221.200 C 350.600 221.000,352.131 218.190,352.960 216.503 C 353.202 216.010,353.535 215.605,353.700 215.603 C 353.865 215.601,354.000 215.240,354.000 214.800 C 354.000 214.360,354.180 214.000,354.400 214.000 C 354.620 214.000,354.800 213.764,354.800 213.475 C 354.800 213.187,355.160 212.564,355.600 212.092 C 356.040 211.620,356.400 211.082,356.400 210.896 C 356.400 210.303,357.389 208.406,357.700 208.403 C 358.301 208.397,357.981 206.273,357.300 205.757 C 355.595 204.463,350.000 205.259,350.000 206.795 C 350.000 207.044,349.792 207.119,349.538 206.962 C 349.264 206.793,349.185 206.851,349.342 207.106 C 349.488 207.342,349.336 207.807,349.004 208.139 C 348.672 208.471,348.400 209.026,348.400 209.371 C 348.400 209.717,348.220 210.000,348.000 210.000 C 347.780 210.000,347.600 210.360,347.600 210.800 C 347.600 211.240,347.420 211.600,347.200 211.600 C 346.980 211.600,346.800 211.878,346.800 212.217 C 346.800 212.556,346.440 213.220,346.000 213.692 C 345.560 214.164,345.200 214.843,345.200 215.200 C 345.200 215.557,344.840 216.236,344.400 216.708 C 343.960 217.180,343.600 217.718,343.600 217.904 C 343.600 218.747,342.541 220.393,342.000 220.390 C 341.383 220.386,339.307 216.516,339.538 215.800 C 339.609 215.580,339.535 215.531,339.375 215.692 C 339.214 215.852,338.686 215.222,338.202 214.292 C 337.717 213.361,336.675 211.404,335.886 209.942 C 335.096 208.479,334.574 207.146,334.725 206.977 C 334.876 206.809,334.775 206.801,334.500 206.959 C 334.225 207.118,334.000 207.044,334.000 206.795 C 334.000 205.259,328.405 204.463,326.700 205.757 M88.862 208.975 C 88.938 209.342,89.180 209.633,89.400 209.621 C 89.994 209.590,89.885 208.695,89.262 208.487 C 88.925 208.375,88.775 208.558,88.862 208.975 M82.667 213.467 C 82.160 213.974,82.403 214.400,83.200 214.400 C 83.644 214.400,84.000 214.133,84.000 213.800 C 84.000 213.191,83.154 212.979,82.667 213.467 M277.520 213.680 C 278.189 214.349,278.125 217.533,277.429 218.229 C 276.994 218.663,275.653 218.800,271.829 218.800 C 267.118 218.800,266.800 218.849,266.800 219.576 C 266.800 220.003,266.620 220.464,266.400 220.600 C 265.780 220.983,265.914 224.771,266.571 225.429 C 266.993 225.851,268.231 226.000,271.305 226.000 C 273.594 226.000,275.602 226.135,275.767 226.300 C 276.068 226.601,276.275 226.658,277.418 226.750 C 277.923 226.791,278.015 227.297,277.918 229.500 L 277.800 232.200 270.700 232.309 L 263.600 232.418 263.600 222.809 L 263.600 213.200 270.320 213.200 C 275.013 213.200,277.185 213.345,277.520 213.680 M80.062 217.775 C 80.138 218.142,80.380 218.433,80.600 218.421 C 81.194 218.390,81.085 217.495,80.462 217.287 C 80.125 217.175,79.975 217.358,80.062 217.775 M89.384 218.027 C 89.015 218.622,89.442 218.946,90.208 218.652 C 90.562 218.517,90.739 218.224,90.602 218.003 C 90.278 217.478,89.716 217.489,89.384 218.027 M294.300 219.464 C 293.695 219.783,293.200 220.304,293.200 220.622 C 293.200 220.940,293.020 221.200,292.800 221.200 C 292.545 221.200,292.400 224.451,292.400 230.154 C 292.400 240.381,292.358 240.263,296.000 240.138 C 299.799 240.007,299.600 240.415,299.600 232.753 L 299.600 226.000 309.200 226.000 L 318.800 226.000 318.800 222.880 C 318.800 220.987,318.611 219.571,318.320 219.280 C 317.562 218.522,295.772 218.689,294.300 219.464 M89.671 222.267 C 89.865 223.270,90.800 223.408,90.800 222.433 C 90.800 221.942,90.542 221.600,90.171 221.600 C 89.798 221.600,89.594 221.872,89.671 222.267 M82.000 223.800 C 82.000 224.130,82.270 224.400,82.600 224.400 C 82.930 224.400,83.200 224.130,83.200 223.800 C 83.200 223.470,82.930 223.200,82.600 223.200 C 82.270 223.200,82.000 223.470,82.000 223.800 " stroke="none" fill="#e6e5e5" fill-rule="evenodd"></path><path id="path1" d="M69.000 173.416 C 35.618 178.405,20.164 207.247,39.660 228.174 C 40.902 229.509,43.316 231.590,45.024 232.800 C 58.579 242.405,60.161 248.683,51.500 258.500 L 49.118 261.200 50.295 261.200 C 55.134 261.200,73.787 254.310,86.400 247.863 C 113.986 233.763,124.577 222.639,124.541 207.800 C 124.489 185.887,97.470 169.160,69.000 173.416 M72.212 190.632 C 74.342 191.643,74.400 192.160,74.400 210.278 L 74.400 226.836 73.446 227.790 C 71.490 229.746,67.101 230.045,64.594 228.392 C 63.937 227.959,62.770 227.600,62.000 227.594 C 57.921 227.561,54.800 224.352,54.800 220.192 C 54.800 218.959,54.491 217.983,53.763 216.918 C 52.359 214.862,52.530 211.743,54.138 210.064 C 55.110 209.050,55.167 208.826,54.756 207.645 C 53.774 204.829,55.018 201.870,57.640 200.784 C 58.390 200.473,58.800 200.011,58.800 199.478 C 58.800 197.705,60.423 195.255,62.403 194.036 C 63.475 193.376,64.535 192.495,64.759 192.077 C 65.760 190.206,69.703 189.442,72.212 190.632 M85.200 192.400 C 86.306 193.500,87.457 194.400,87.758 194.400 C 88.636 194.400,90.400 197.030,90.400 198.341 C 90.400 200.048,90.776 200.800,91.629 200.800 C 94.012 200.800,96.049 205.266,94.763 207.669 C 94.401 208.345,94.538 208.782,95.563 210.208 C 97.222 212.519,97.285 215.089,95.730 217.127 C 94.901 218.214,94.632 219.067,94.536 220.919 C 94.331 224.853,91.945 227.200,88.151 227.200 C 86.938 227.200,85.995 227.442,85.514 227.877 C 83.589 229.620,80.777 229.957,78.028 228.774 C 75.059 227.497,75.160 228.210,75.287 209.332 L 75.400 192.464 76.370 191.432 C 77.241 190.505,77.638 190.400,80.264 190.400 L 83.189 190.400 85.200 192.400 M77.446 191.949 C 76.632 192.848,76.715 194.386,77.600 194.797 C 77.930 194.950,78.616 195.292,79.125 195.557 C 80.274 196.154,81.600 195.777,81.600 194.853 C 81.600 194.472,81.795 193.965,82.034 193.726 C 82.272 193.488,82.407 192.867,82.334 192.346 C 82.146 191.020,78.552 190.728,77.446 191.949 M82.900 194.198 C 82.100 195.107,82.318 196.362,83.458 197.419 C 84.598 198.475,85.397 198.709,85.105 197.900 C 85.006 197.625,84.678 196.545,84.375 195.500 C 83.781 193.446,83.658 193.338,82.900 194.198 M85.459 194.738 C 85.381 194.882,85.476 195.585,85.670 196.300 C 86.017 197.578,87.200 198.145,87.200 197.033 C 87.200 196.721,87.290 196.226,87.400 195.933 C 87.602 195.395,85.727 194.241,85.459 194.738 M76.800 199.400 C 76.800 203.141,76.772 203.096,78.472 202.100 C 80.948 200.649,81.295 197.705,79.118 196.619 C 76.919 195.522,76.800 195.665,76.800 199.400 M87.974 197.857 C 87.354 199.473,87.750 201.293,89.173 203.361 C 89.848 204.342,90.400 205.342,90.400 205.585 C 90.400 206.485,91.660 206.483,92.620 205.581 C 94.379 203.929,93.459 201.917,90.771 201.537 C 89.923 201.417,89.785 201.164,89.679 199.532 C 89.524 197.125,88.603 196.219,87.974 197.857 M81.770 199.100 C 81.657 199.485,81.228 200.475,80.815 201.301 L 80.066 202.801 80.985 203.032 C 82.822 203.493,84.130 203.052,84.912 201.710 L 85.662 200.419 84.573 199.410 C 83.306 198.236,82.063 198.099,81.770 199.100 M86.152 201.906 C 85.675 202.218,85.711 204.467,86.214 205.800 C 86.627 206.894,88.025 207.980,89.033 207.991 C 90.322 208.005,90.411 207.643,89.510 206.062 C 89.052 205.258,88.311 203.925,87.864 203.100 C 87.011 201.525,86.876 201.431,86.152 201.906 M81.055 204.600 C 80.929 204.930,80.553 205.200,80.221 205.200 C 79.888 205.200,79.249 205.920,78.800 206.800 C 78.351 207.680,78.122 208.399,78.292 208.397 C 79.094 208.391,83.200 204.882,83.200 204.204 C 83.200 203.704,81.262 204.063,81.055 204.600 M77.067 205.067 C 76.920 205.213,76.804 205.888,76.809 206.567 L 76.818 207.800 77.600 206.800 C 78.730 205.355,78.271 203.863,77.067 205.067 M82.803 206.459 C 81.445 207.881,81.370 208.266,82.236 209.400 C 82.757 210.082,82.896 210.112,83.189 209.600 C 83.377 209.270,83.974 208.485,84.516 207.856 C 86.481 205.574,84.890 204.276,82.803 206.459 M92.870 206.926 C 91.803 208.061,91.789 208.707,92.800 210.000 C 93.230 210.550,93.586 211.208,93.591 211.462 C 93.604 212.157,95.300 215.200,95.674 215.200 C 96.515 215.200,95.937 212.496,94.816 211.185 C 93.548 209.702,93.184 207.376,94.080 206.480 C 94.363 206.197,94.391 206.000,94.150 206.000 C 93.924 206.000,93.348 206.417,92.870 206.926 M84.478 209.719 C 83.254 210.983,82.779 212.400,83.581 212.400 C 83.942 212.400,86.400 209.111,86.400 208.628 C 86.400 208.078,85.663 208.497,84.478 209.719 M78.300 209.878 C 76.953 210.803,76.800 211.086,76.800 212.654 L 76.800 214.400 78.976 214.400 C 81.428 214.400,81.702 214.156,81.672 211.998 C 81.630 208.916,80.623 208.283,78.300 209.878 M89.800 211.034 C 87.634 215.174,91.266 220.011,93.724 216.260 C 94.271 215.426,94.224 215.156,93.160 212.986 C 92.522 211.685,92.000 210.468,92.000 210.282 C 92.000 208.638,90.847 209.033,89.800 211.034 M87.200 209.725 C 87.200 210.014,86.660 210.768,86.000 211.400 C 84.315 213.014,84.449 213.978,86.543 215.300 C 88.604 216.602,88.971 216.666,88.414 215.626 C 87.871 214.611,87.883 211.877,88.433 211.327 C 88.743 211.017,88.716 210.655,88.337 210.047 C 87.740 209.091,87.200 208.939,87.200 209.725 M76.800 216.400 C 76.800 217.896,78.030 218.027,80.177 216.761 C 82.027 215.669,81.667 215.200,78.976 215.200 C 76.825 215.200,76.800 215.214,76.800 216.400 M82.551 216.112 C 80.633 218.318,81.975 223.338,84.125 222.000 C 88.567 219.238,88.996 218.199,86.397 216.500 C 84.036 214.956,83.595 214.912,82.551 216.112 M77.700 218.888 C 76.335 219.547,76.320 226.708,77.682 227.558 C 79.235 228.528,82.559 223.199,81.229 221.869 C 80.993 221.633,80.800 221.047,80.800 220.566 C 80.800 219.875,79.261 218.297,78.714 218.427 C 78.651 218.442,78.195 218.649,77.700 218.888 M89.891 219.439 C 89.062 219.739,87.993 220.348,87.516 220.793 C 87.039 221.237,86.503 221.600,86.325 221.600 C 86.146 221.600,86.000 221.780,86.000 222.000 C 86.000 223.370,90.671 221.224,91.287 219.571 C 91.445 219.147,91.535 218.821,91.487 218.847 C 91.439 218.872,90.721 219.139,89.891 219.439 M92.800 219.338 C 92.800 219.634,92.485 220.161,92.100 220.509 C 91.400 221.143,91.210 223.045,91.757 223.931 C 92.203 224.653,92.554 224.492,93.100 223.317 C 93.696 222.033,93.768 218.800,93.200 218.800 C 92.980 218.800,92.800 219.042,92.800 219.338 M86.200 223.600 C 86.064 223.820,85.535 224.000,85.025 224.000 C 84.515 224.000,83.874 224.270,83.600 224.600 C 83.326 224.930,82.899 225.200,82.651 225.200 C 82.129 225.200,80.000 227.753,80.000 228.379 C 80.000 229.400,83.815 228.254,85.380 226.762 C 85.589 226.563,86.686 226.400,87.818 226.400 C 90.592 226.400,91.738 225.332,90.351 224.040 C 89.396 223.151,86.657 222.860,86.200 223.600 " stroke="none" fill="#059ca4" fill-rule="evenodd"></path><path id="path2" d="M39.800 180.000 C 39.664 180.220,39.224 180.400,38.823 180.400 C 38.422 180.400,37.999 180.760,37.884 181.200 C 37.769 181.640,37.388 182.000,37.037 182.000 C 36.687 182.000,36.400 182.180,36.400 182.400 C 36.400 182.620,36.152 182.800,35.848 182.800 C 35.545 182.800,34.353 183.700,33.200 184.800 C 32.047 185.900,30.966 186.800,30.798 186.800 C 30.629 186.800,30.223 187.205,29.895 187.700 C 29.566 188.195,28.736 189.183,28.049 189.896 C 27.362 190.609,26.800 191.421,26.800 191.700 C 26.800 191.979,26.481 192.407,26.090 192.651 C 25.700 192.895,24.935 193.973,24.390 195.047 C 23.846 196.121,23.265 197.060,23.100 197.133 C 22.935 197.207,22.800 197.601,22.800 198.010 C 22.800 198.418,22.620 198.864,22.400 199.000 C 22.180 199.136,22.000 199.867,22.000 200.624 C 22.000 201.381,21.840 202.000,21.644 202.000 C 20.733 202.000,19.914 218.474,20.782 219.342 C 21.012 219.572,21.200 220.264,21.200 220.880 C 21.200 221.496,21.380 222.000,21.600 222.000 C 21.820 222.000,22.000 222.540,22.000 223.200 C 22.000 223.860,22.180 224.400,22.400 224.400 C 22.620 224.400,22.800 224.760,22.800 225.200 C 22.800 225.640,22.980 226.000,23.200 226.000 C 23.420 226.000,23.600 226.360,23.600 226.800 C 23.600 227.240,23.780 227.600,24.000 227.600 C 24.220 227.600,24.400 227.790,24.400 228.022 C 24.400 228.617,27.558 233.200,27.968 233.200 C 28.154 233.200,28.401 233.560,28.516 234.000 C 28.631 234.440,29.012 234.800,29.363 234.800 C 29.713 234.800,30.000 235.062,30.000 235.382 C 30.000 236.136,31.864 238.000,32.618 238.000 C 32.938 238.000,33.200 238.276,33.200 238.613 C 33.200 238.949,33.515 239.342,33.900 239.485 C 34.285 239.628,34.891 240.072,35.247 240.472 C 35.603 240.873,36.148 241.200,36.459 241.200 C 36.769 241.200,37.283 241.560,37.600 242.000 C 37.917 242.440,38.410 242.800,38.696 242.800 C 39.238 242.800,44.393 247.756,44.409 248.293 C 44.414 248.462,44.770 249.050,45.200 249.600 C 46.014 250.640,46.298 253.200,45.600 253.200 C 45.380 253.200,45.200 253.560,45.200 254.000 C 45.200 254.440,45.020 254.800,44.800 254.800 C 44.580 254.800,44.400 255.040,44.400 255.334 C 44.400 255.628,43.143 257.203,41.608 258.834 C 40.072 260.465,38.812 262.025,38.808 262.300 C 38.803 262.575,38.620 262.800,38.400 262.800 C 37.630 262.800,37.935 267.164,38.768 268.057 C 40.401 269.810,46.587 270.916,47.400 269.600 C 47.536 269.380,48.526 269.200,49.600 269.200 C 50.674 269.200,51.664 269.020,51.800 268.800 C 51.936 268.580,52.487 268.400,53.024 268.400 C 53.561 268.400,54.000 268.220,54.000 268.000 C 54.000 267.780,54.720 267.600,55.600 267.600 C 56.480 267.600,57.200 267.420,57.200 267.200 C 57.200 266.980,57.549 266.800,57.976 266.800 C 58.403 266.800,58.864 266.620,59.000 266.400 C 59.136 266.180,59.867 266.000,60.624 266.000 C 61.381 266.000,62.001 265.865,62.003 265.700 C 62.008 265.253,64.026 264.400,65.080 264.400 C 65.586 264.400,66.000 264.220,66.000 264.000 C 66.000 263.780,66.360 263.600,66.800 263.600 C 67.240 263.600,67.600 263.420,67.600 263.200 C 67.600 262.980,68.140 262.800,68.800 262.800 C 69.460 262.800,70.001 262.665,70.003 262.500 C 70.007 262.111,71.970 261.200,72.804 261.200 C 73.159 261.200,73.836 260.840,74.308 260.400 C 74.780 259.960,75.624 259.600,76.183 259.600 C 76.742 259.600,77.200 259.464,77.200 259.298 C 77.200 259.131,77.785 258.756,78.500 258.463 C 80.828 257.511,83.377 256.251,84.462 255.518 C 85.046 255.123,85.811 254.800,86.162 254.800 C 86.513 254.800,86.800 254.620,86.800 254.400 C 86.800 254.180,87.132 254.000,87.538 254.000 C 87.944 254.000,88.602 253.640,89.000 253.200 C 89.398 252.760,90.022 252.400,90.387 252.400 C 90.751 252.400,91.436 252.040,91.908 251.600 C 92.380 251.160,92.962 250.800,93.200 250.800 C 93.438 250.800,94.020 250.440,94.492 250.000 C 94.964 249.560,95.587 249.200,95.875 249.200 C 96.164 249.200,96.400 249.020,96.400 248.800 C 96.400 248.580,96.760 248.400,97.200 248.400 C 97.640 248.400,98.000 248.220,98.000 248.000 C 98.000 247.780,97.640 247.600,97.200 247.600 C 96.760 247.600,96.400 247.780,96.400 248.000 C 96.400 248.220,96.135 248.400,95.810 248.400 C 95.486 248.400,94.001 249.014,92.510 249.765 C 87.821 252.128,80.702 255.472,78.000 256.582 C 76.570 257.170,74.637 257.999,73.704 258.425 C 72.772 258.851,71.747 259.200,71.428 259.200 C 71.109 259.200,70.751 259.355,70.634 259.545 C 70.517 259.735,69.561 260.123,68.510 260.407 C 67.460 260.692,66.420 261.046,66.200 261.195 C 65.858 261.427,60.062 263.266,56.200 264.369 C 46.015 267.276,41.237 263.311,47.219 256.916 C 54.971 248.629,54.187 244.241,43.681 237.127 C 35.996 231.922,29.518 223.309,27.943 216.200 C 26.715 210.657,26.419 207.752,26.823 205.208 C 28.328 195.719,30.936 190.526,37.976 183.000 C 40.436 180.370,41.001 179.600,40.473 179.600 C 40.239 179.600,39.936 179.780,39.800 180.000 " stroke="none" fill="#bca58d" fill-rule="evenodd"></path><path id="path3" d="M72.400 172.353 C 71.630 172.489,74.150 172.600,78.000 172.600 C 81.938 172.600,84.213 172.482,83.200 172.330 C 81.002 172.000,74.318 172.014,72.400 172.353 M66.200 173.200 L 65.000 173.505 66.200 173.513 C 66.860 173.517,67.850 173.376,68.400 173.200 L 69.400 172.880 68.400 172.887 C 67.850 172.891,66.860 173.032,66.200 173.200 M87.200 173.200 C 87.750 173.376,88.740 173.517,89.400 173.513 L 90.600 173.505 89.400 173.200 C 88.740 173.032,87.750 172.891,87.200 172.887 L 86.200 172.880 87.200 173.200 M59.800 174.800 L 59.000 175.144 59.800 175.166 C 60.240 175.178,60.870 175.013,61.200 174.800 C 61.995 174.286,60.996 174.286,59.800 174.800 M94.600 174.800 C 95.040 174.989,95.670 175.144,96.000 175.144 C 96.378 175.144,96.304 175.017,95.800 174.800 C 95.360 174.611,94.730 174.456,94.400 174.456 C 94.022 174.456,94.096 174.583,94.600 174.800 M55.200 176.400 C 54.667 176.745,54.667 176.788,55.200 176.788 C 55.530 176.788,56.070 176.613,56.400 176.400 C 56.933 176.055,56.933 176.012,56.400 176.012 C 56.070 176.012,55.530 176.187,55.200 176.400 M99.200 176.400 C 99.530 176.613,100.070 176.788,100.400 176.788 C 100.933 176.788,100.933 176.745,100.400 176.400 C 100.070 176.187,99.530 176.012,99.200 176.012 C 98.667 176.012,98.667 176.055,99.200 176.400 M51.100 178.229 C 50.495 178.557,50.000 178.906,50.000 179.004 C 50.000 179.228,52.066 178.363,52.580 177.924 C 53.207 177.390,52.304 177.576,51.100 178.229 M102.833 177.749 C 103.245 178.117,105.600 179.200,105.600 179.021 C 105.600 178.790,103.382 177.600,102.953 177.600 C 102.796 177.600,102.742 177.667,102.833 177.749 M47.700 180.226 C 45.812 181.358,45.377 181.949,47.100 181.041 C 48.309 180.403,49.916 179.231,49.600 179.217 C 49.490 179.212,48.635 179.666,47.700 180.226 M106.000 179.309 C 106.110 179.425,107.551 180.422,109.203 181.524 C 110.854 182.626,113.464 184.658,115.003 186.040 C 116.914 187.756,117.293 188.005,116.200 186.825 C 114.466 184.953,109.018 180.733,107.031 179.724 C 106.354 179.380,105.890 179.193,106.000 179.309 M43.453 183.236 C 41.112 185.116,41.342 185.345,43.723 183.504 C 44.646 182.791,45.475 182.161,45.567 182.104 C 45.658 182.047,45.658 181.926,45.567 181.836 C 45.475 181.745,44.524 182.375,43.453 183.236 M39.375 186.850 C 38.552 187.725,38.452 187.947,39.041 187.591 C 39.767 187.151,41.043 185.600,40.678 185.600 C 40.608 185.600,40.021 186.163,39.375 186.850 M37.117 189.500 C 36.031 190.657,33.600 194.463,33.600 195.006 C 33.600 195.181,34.339 194.171,35.242 192.762 C 36.146 191.353,37.257 189.795,37.712 189.300 C 38.167 188.805,38.452 188.400,38.345 188.400 C 38.237 188.400,37.685 188.895,37.117 189.500 M118.835 190.400 C 120.436 192.604,121.036 193.262,120.477 192.200 C 120.245 191.760,119.487 190.770,118.792 190.000 L 117.528 188.600 118.835 190.400 M66.136 191.174 C 65.440 191.598,64.756 192.308,64.615 192.752 C 64.474 193.196,63.995 193.675,63.549 193.816 C 63.104 193.957,62.828 194.161,62.936 194.269 C 63.301 194.635,64.745 193.605,65.001 192.795 C 65.142 192.352,65.919 191.640,66.729 191.213 C 67.538 190.785,68.020 190.428,67.800 190.419 C 67.580 190.410,66.831 190.750,66.136 191.174 M71.400 190.868 C 71.840 191.112,72.479 191.512,72.820 191.756 C 73.160 192.000,73.015 191.795,72.497 191.300 C 71.979 190.805,71.340 190.405,71.078 190.412 C 70.815 190.419,70.960 190.624,71.400 190.868 M82.660 192.093 C 82.531 192.584,82.600 193.160,82.813 193.373 C 83.062 193.622,83.200 193.589,83.200 193.280 C 83.200 193.016,83.562 192.800,84.003 192.800 C 84.707 192.800,84.745 192.700,84.307 192.000 C 83.649 190.946,82.950 190.985,82.660 192.093 M73.783 209.800 C 73.783 219.260,73.836 223.073,73.900 218.273 C 73.964 213.473,73.963 205.733,73.899 201.073 C 73.836 196.413,73.783 200.340,73.783 209.800 M84.639 193.494 C 84.080 194.053,84.443 194.714,85.200 194.516 C 85.640 194.401,86.000 194.167,86.000 193.996 C 86.000 193.582,84.942 193.192,84.639 193.494 M121.478 194.595 C 121.844 195.362,122.214 195.919,122.301 195.832 C 122.484 195.649,121.270 193.200,120.996 193.200 C 120.895 193.200,121.112 193.828,121.478 194.595 M88.000 195.520 C 88.000 195.936,88.867 196.800,89.283 196.800 C 89.461 196.800,89.382 196.440,89.107 196.000 C 88.602 195.192,88.000 194.931,88.000 195.520 M32.556 197.043 C 32.224 197.837,32.026 198.559,32.114 198.648 C 32.203 198.736,32.559 198.087,32.905 197.204 C 33.689 195.209,33.382 195.068,32.556 197.043 M59.449 197.815 C 59.312 198.173,59.221 198.946,59.246 199.533 C 59.280 200.332,59.370 200.198,59.604 199.000 C 59.935 197.300,59.862 196.740,59.449 197.815 M85.649 198.511 C 84.987 199.173,85.102 199.779,85.782 199.215 C 86.103 198.949,86.553 198.847,86.782 198.989 C 87.012 199.131,87.200 199.076,87.200 198.866 C 87.200 198.261,86.141 198.019,85.649 198.511 M123.212 198.400 C 123.212 198.730,123.387 199.270,123.600 199.600 C 123.945 200.133,123.988 200.133,123.988 199.600 C 123.988 199.270,123.813 198.730,123.600 198.400 C 123.255 197.867,123.212 197.867,123.212 198.400 M89.600 199.600 C 89.600 200.040,89.780 200.400,90.000 200.400 C 90.220 200.400,90.400 200.040,90.400 199.600 C 90.400 199.160,90.220 198.800,90.000 198.800 C 89.780 198.800,89.600 199.160,89.600 199.600 M31.400 200.000 C 31.250 200.473,31.217 200.950,31.327 201.060 C 31.437 201.170,31.650 200.873,31.800 200.400 C 31.950 199.927,31.983 199.450,31.873 199.340 C 31.763 199.230,31.550 199.527,31.400 200.000 M85.600 200.686 C 85.600 201.270,85.688 201.295,86.567 200.957 C 87.452 200.618,87.357 200.171,86.400 200.171 C 85.960 200.171,85.600 200.403,85.600 200.686 M30.654 203.856 C 30.330 206.220,30.365 210.543,30.724 212.563 C 30.884 213.464,31.001 211.558,31.001 208.063 C 31.000 201.256,31.004 201.305,30.654 203.856 M76.138 203.817 C 76.008 204.157,76.006 204.539,76.133 204.667 C 76.537 205.070,77.600 204.451,77.600 203.813 C 77.600 203.014,76.445 203.018,76.138 203.817 M78.800 203.751 C 78.800 204.054,79.115 204.549,79.500 204.851 C 80.130 205.345,80.147 205.332,79.666 204.718 C 79.372 204.342,79.247 203.847,79.389 203.618 C 79.531 203.388,79.457 203.200,79.224 203.200 C 78.991 203.200,78.800 203.448,78.800 203.751 M54.909 205.600 C 54.909 206.590,54.987 206.995,55.082 206.500 C 55.178 206.005,55.178 205.195,55.082 204.700 C 54.987 204.205,54.909 204.610,54.909 205.600 M124.948 208.000 C 124.948 210.310,125.014 211.255,125.095 210.100 C 125.176 208.945,125.176 207.055,125.095 205.900 C 125.014 204.745,124.948 205.690,124.948 208.000 M85.609 206.851 C 85.625 207.827,87.043 209.386,87.301 208.712 C 87.551 208.063,87.336 207.664,86.300 206.851 C 85.707 206.386,85.601 206.386,85.609 206.851 M90.600 207.200 C 90.308 207.672,90.687 208.400,91.224 208.400 C 91.431 208.400,91.600 208.040,91.600 207.600 C 91.600 206.756,91.018 206.524,90.600 207.200 M55.246 208.638 C 55.221 209.099,54.840 209.802,54.400 210.200 C 53.960 210.598,53.600 211.090,53.600 211.293 C 53.600 211.495,54.064 211.110,54.630 210.437 C 55.204 209.755,55.579 208.899,55.477 208.506 C 55.327 207.930,55.284 207.954,55.246 208.638 M88.598 208.404 C 88.236 208.988,88.790 210.470,89.305 210.298 C 90.201 210.000,90.638 208.802,90.000 208.395 C 89.228 207.903,88.906 207.905,88.598 208.404 M93.600 208.538 C 93.600 208.834,94.005 209.414,94.500 209.827 C 94.995 210.241,95.175 210.323,94.900 210.009 C 94.625 209.696,94.400 209.116,94.400 208.720 C 94.400 208.324,94.220 208.000,94.000 208.000 C 93.780 208.000,93.600 208.242,93.600 208.538 M76.453 208.936 C 76.069 209.399,76.075 209.566,76.483 209.731 C 76.886 209.893,76.867 210.033,76.400 210.363 C 76.070 210.597,76.003 210.791,76.251 210.794 C 77.045 210.805,77.693 209.695,77.302 208.996 C 76.986 208.431,76.878 208.424,76.453 208.936 M89.800 209.133 C 89.800 209.857,89.017 209.725,88.862 208.975 C 88.775 208.558,88.925 208.375,89.262 208.487 C 89.558 208.586,89.800 208.877,89.800 209.133 M82.172 212.311 C 82.202 214.804,84.006 215.967,84.328 213.700 C 84.414 213.095,84.250 212.800,83.828 212.800 C 83.433 212.800,83.200 212.446,83.200 211.849 C 83.200 211.326,82.962 210.701,82.672 210.460 C 82.245 210.105,82.150 210.459,82.172 212.311 M52.958 213.025 C 52.816 213.589,52.858 214.404,53.050 214.835 C 53.314 215.426,53.400 215.173,53.400 213.809 C 53.400 211.734,53.318 211.589,52.958 213.025 M84.000 213.800 C 84.000 214.133,83.644 214.400,83.200 214.400 C 82.403 214.400,82.160 213.974,82.667 213.467 C 83.154 212.979,84.000 213.191,84.000 213.800 M123.429 216.629 C 123.281 217.215,123.238 217.772,123.332 217.866 C 123.427 217.960,123.624 217.558,123.771 216.971 C 123.919 216.385,123.962 215.828,123.868 215.734 C 123.773 215.640,123.576 216.042,123.429 216.629 M53.600 216.307 C 53.600 216.510,53.960 217.002,54.400 217.400 C 54.840 217.798,55.214 218.411,55.232 218.762 C 55.252 219.178,55.333 219.226,55.466 218.898 C 55.577 218.622,55.203 217.843,54.634 217.167 C 54.065 216.492,53.600 216.105,53.600 216.307 M32.012 217.200 C 32.012 217.530,32.187 218.070,32.400 218.400 C 32.745 218.933,32.788 218.933,32.788 218.400 C 32.788 218.070,32.613 217.530,32.400 217.200 C 32.055 216.667,32.012 216.667,32.012 217.200 M79.595 217.406 C 79.180 217.906,79.241 218.142,79.946 218.753 C 80.416 219.160,80.800 219.698,80.800 219.947 C 80.800 220.196,80.980 220.400,81.200 220.400 C 81.727 220.400,81.714 219.717,81.181 219.388 C 80.889 219.208,80.891 218.972,81.187 218.615 C 81.700 217.997,81.317 216.800,80.606 216.800 C 80.327 216.800,79.872 217.073,79.595 217.406 M93.083 217.438 C 92.447 217.783,91.608 217.929,91.133 217.779 C 90.572 217.601,90.390 217.660,90.575 217.960 C 90.727 218.205,90.562 218.517,90.208 218.652 C 89.312 218.996,88.986 218.540,89.600 217.801 C 90.034 217.277,90.009 217.222,89.437 217.441 C 89.065 217.584,88.816 217.993,88.884 218.350 C 89.026 219.096,90.800 219.498,90.800 218.784 C 90.800 218.485,91.155 218.402,91.771 218.557 C 92.412 218.718,92.974 218.569,93.424 218.119 C 94.066 217.477,94.088 217.494,93.808 218.419 C 93.609 219.073,93.643 219.267,93.910 219.000 C 94.461 218.449,94.928 216.796,94.527 216.816 C 94.347 216.825,93.697 217.105,93.083 217.438 M81.000 217.933 C 81.000 218.657,80.217 218.525,80.062 217.775 C 79.975 217.358,80.125 217.175,80.462 217.287 C 80.758 217.386,81.000 217.677,81.000 217.933 M90.357 221.529 C 90.696 221.766,90.823 222.270,90.680 222.817 C 90.517 223.438,90.573 223.587,90.860 223.300 C 91.423 222.737,91.139 221.504,90.400 221.303 C 89.901 221.167,89.894 221.205,90.357 221.529 M55.209 221.926 C 55.189 223.091,57.645 226.400,58.529 226.400 C 58.737 226.400,58.411 226.009,57.804 225.531 C 57.196 225.054,56.366 223.929,55.959 223.031 C 55.551 222.134,55.214 221.637,55.209 221.926 M119.797 223.900 C 118.964 225.165,118.633 225.889,119.062 225.509 C 119.817 224.841,121.824 221.600,121.482 221.600 C 121.389 221.600,120.631 222.635,119.797 223.900 M81.863 223.071 C 81.718 223.215,81.600 223.663,81.600 224.067 C 81.600 224.968,83.119 225.077,83.455 224.200 C 83.582 223.870,84.056 223.600,84.509 223.600 C 84.963 223.600,85.232 223.499,85.108 223.375 C 84.755 223.022,82.155 222.778,81.863 223.071 M83.200 223.800 C 83.200 224.130,82.930 224.400,82.600 224.400 C 82.270 224.400,82.000 224.130,82.000 223.800 C 82.000 223.470,82.270 223.200,82.600 223.200 C 82.930 223.200,83.200 223.470,83.200 223.800 M36.743 225.900 C 37.181 226.505,38.760 228.170,40.252 229.600 L 42.964 232.200 39.882 228.904 C 38.187 227.092,36.800 225.427,36.800 225.204 C 36.800 224.982,36.608 224.800,36.373 224.800 C 36.138 224.800,36.304 225.295,36.743 225.900 M59.646 226.837 C 59.951 227.030,61.010 227.176,62.000 227.162 C 64.133 227.132,63.755 226.940,61.046 226.676 C 59.842 226.559,59.305 226.621,59.646 226.837 M114.200 230.181 C 112.220 232.151,111.320 233.200,112.200 232.513 C 114.072 231.051,118.234 226.870,117.977 226.710 C 117.879 226.649,116.180 228.211,114.200 230.181 M64.000 227.527 C 64.000 227.716,64.450 228.077,65.000 228.327 C 65.550 228.578,66.000 228.717,66.000 228.637 C 66.000 228.557,65.550 228.197,65.000 227.837 C 64.450 227.476,64.000 227.337,64.000 227.527 M67.905 229.083 C 68.402 229.179,69.122 229.175,69.505 229.075 C 69.887 228.975,69.480 228.896,68.600 228.901 C 67.720 228.905,67.407 228.987,67.905 229.083 M107.705 235.325 C 106.993 235.806,106.408 236.344,106.405 236.520 C 106.402 236.697,107.030 236.360,107.800 235.773 C 108.570 235.186,109.200 234.636,109.200 234.553 C 109.200 234.327,109.119 234.369,107.705 235.325 M51.005 238.529 C 52.790 240.328,54.644 242.610,55.125 243.600 C 55.606 244.590,56.000 245.110,56.000 244.756 C 56.000 243.432,50.421 236.728,48.380 235.600 C 48.040 235.412,49.221 236.730,51.005 238.529 M104.900 237.288 C 104.405 237.527,104.000 237.879,104.000 238.070 C 104.000 238.262,104.450 238.124,105.000 237.763 C 106.467 236.802,106.416 236.557,104.900 237.288 M99.300 241.026 C 98.365 241.587,97.600 242.140,97.600 242.255 C 97.600 242.471,100.299 240.938,100.980 240.336 C 101.667 239.728,101.027 239.991,99.300 241.026 M173.700 240.276 C 174.085 240.376,174.715 240.376,175.100 240.276 C 175.485 240.175,175.170 240.093,174.400 240.093 C 173.630 240.093,173.315 240.175,173.700 240.276 M193.900 240.282 C 194.395 240.378,195.205 240.378,195.700 240.282 C 196.195 240.187,195.790 240.109,194.800 240.109 C 193.810 240.109,193.405 240.187,193.900 240.282 M208.100 240.276 C 208.485 240.376,209.115 240.376,209.500 240.276 C 209.885 240.175,209.570 240.093,208.800 240.093 C 208.030 240.093,207.715 240.175,208.100 240.276 M229.900 240.282 C 230.395 240.378,231.205 240.378,231.700 240.282 C 232.195 240.187,231.790 240.109,230.800 240.109 C 229.810 240.109,229.405 240.187,229.900 240.282 M244.900 240.276 C 245.285 240.376,245.915 240.376,246.300 240.276 C 246.685 240.175,246.370 240.093,245.600 240.093 C 244.830 240.093,244.515 240.175,244.900 240.276 M264.700 240.299 C 267.175 240.369,271.225 240.369,273.700 240.299 C 276.175 240.228,274.150 240.171,269.200 240.171 C 264.250 240.171,262.225 240.228,264.700 240.299 M295.300 240.276 C 295.685 240.376,296.315 240.376,296.700 240.276 C 297.085 240.175,296.770 240.093,296.000 240.093 C 295.230 240.093,294.915 240.175,295.300 240.276 M56.200 248.000 C 56.200 249.278,56.332 250.116,56.494 249.862 C 56.656 249.608,56.788 248.770,56.788 248.000 C 56.788 247.230,56.656 246.392,56.494 246.138 C 56.332 245.884,56.200 246.722,56.200 248.000 M89.500 246.626 C 88.455 247.170,87.600 247.705,87.600 247.814 C 87.600 247.924,88.500 247.557,89.600 247.000 C 90.700 246.443,91.600 245.900,91.600 245.793 C 91.600 245.529,91.636 245.514,89.500 246.626 M82.000 250.400 C 81.230 250.822,80.780 251.166,81.000 251.166 C 81.220 251.166,82.030 250.822,82.800 250.400 C 83.570 249.978,84.020 249.634,83.800 249.634 C 83.580 249.634,82.770 249.978,82.000 250.400 M55.632 251.254 C 55.586 252.190,52.768 256.230,50.396 258.758 C 48.121 261.183,48.051 261.777,50.031 261.852 L 51.400 261.904 50.100 261.727 C 48.421 261.498,48.376 261.623,51.371 258.188 C 54.258 254.878,56.172 251.863,55.867 251.105 C 55.735 250.779,55.652 250.832,55.632 251.254 M71.000 255.229 C 70.120 255.652,69.850 255.886,70.400 255.749 C 71.533 255.467,73.612 254.425,73.000 254.446 C 72.780 254.453,71.880 254.806,71.000 255.229 M55.800 260.400 C 54.781 260.838,55.832 260.838,57.200 260.400 C 58.004 260.143,58.043 260.077,57.400 260.068 C 56.960 260.062,56.240 260.211,55.800 260.400 " stroke="none" fill="#7fcad1" fill-rule="evenodd"></path><path id="path4" d="M75.913 172.695 C 77.076 172.776,78.876 172.776,79.913 172.693 C 80.951 172.611,80.000 172.545,77.800 172.546 C 75.600 172.547,74.751 172.614,75.913 172.695 M68.400 173.207 C 67.779 173.411,68.309 173.451,69.800 173.312 C 71.120 173.189,72.275 173.024,72.367 172.944 C 72.689 172.665,69.388 172.884,68.400 173.207 M83.233 172.944 C 83.325 173.024,84.480 173.189,85.800 173.312 C 87.291 173.451,87.821 173.411,87.200 173.207 C 86.212 172.884,82.911 172.665,83.233 172.944 M63.800 174.010 C 63.266 174.247,63.598 174.286,64.800 174.127 C 65.790 173.996,66.675 173.824,66.767 173.744 C 67.114 173.443,64.564 173.672,63.800 174.010 M88.833 173.744 C 88.925 173.824,89.810 173.996,90.800 174.127 C 92.002 174.286,92.334 174.247,91.800 174.010 C 91.036 173.672,88.486 173.443,88.833 173.744 M93.400 174.800 C 93.840 174.989,94.470 175.144,94.800 175.144 C 95.178 175.144,95.104 175.017,94.600 174.800 C 94.160 174.611,93.530 174.456,93.200 174.456 C 92.822 174.456,92.896 174.583,93.400 174.800 M58.245 175.528 C 58.133 175.708,58.573 175.777,59.221 175.682 C 59.870 175.587,60.400 175.440,60.400 175.355 C 60.400 175.050,58.443 175.207,58.245 175.528 M102.033 177.752 C 102.441 178.124,106.400 179.993,106.400 179.813 C 106.400 179.588,102.580 177.600,102.147 177.600 C 101.993 177.600,101.942 177.668,102.033 177.752 M49.700 179.426 C 47.371 180.822,47.542 181.096,49.900 179.746 C 52.172 178.445,52.235 178.399,51.767 178.404 C 51.565 178.406,50.635 178.866,49.700 179.426 M106.800 180.121 C 106.800 180.212,107.835 180.951,109.100 181.763 C 110.365 182.575,110.908 182.821,110.306 182.310 C 109.118 181.300,106.800 179.853,106.800 180.121 M43.391 183.695 C 42.516 184.407,41.350 185.422,40.800 185.951 L 39.800 186.912 41.000 186.060 C 42.528 184.976,45.466 182.414,45.191 182.406 C 45.076 182.403,44.266 182.983,43.391 183.695 M114.632 186.279 C 116.410 188.075,118.564 190.592,119.419 191.872 C 121.403 194.845,121.954 195.437,120.838 193.400 C 119.509 190.972,116.061 186.898,113.600 184.847 C 111.816 183.360,112.011 183.631,114.632 186.279 M38.000 188.900 C 35.992 191.459,35.734 191.990,37.369 190.200 C 38.758 188.680,39.800 187.200,39.481 187.200 C 39.400 187.200,38.734 187.965,38.000 188.900 M68.505 190.287 C 69.114 190.379,70.014 190.377,70.505 190.282 C 70.997 190.187,70.500 190.111,69.400 190.114 C 68.300 190.117,67.897 190.195,68.505 190.287 M72.086 190.824 C 72.463 191.044,73.048 191.618,73.386 192.101 C 73.724 192.583,74.000 192.765,74.000 192.505 C 74.000 191.925,72.410 190.395,71.825 190.412 C 71.591 190.419,71.709 190.604,72.086 190.824 M76.370 191.432 L 75.400 192.464 75.287 209.332 C 75.160 228.210,75.059 227.497,78.028 228.774 C 80.831 229.980,84.090 229.535,85.581 227.744 C 86.056 227.172,86.636 227.028,88.079 227.121 C 91.788 227.360,94.328 224.921,94.536 220.919 C 94.632 219.067,94.901 218.214,95.730 217.127 C 96.669 215.896,97.102 214.800,96.649 214.800 C 96.039 214.800,93.600 216.091,93.600 216.414 C 93.600 217.294,91.682 217.746,90.694 217.098 C 88.849 215.890,88.500 213.519,89.800 211.034 C 90.924 208.886,92.000 208.666,92.000 210.584 C 92.000 211.240,93.053 211.880,93.461 211.472 C 93.585 211.348,93.308 210.713,92.844 210.061 C 91.766 208.548,91.782 207.945,92.926 206.870 C 93.876 205.977,94.943 205.617,94.080 206.480 C 93.429 207.131,93.473 208.000,94.157 208.000 C 94.875 208.000,95.200 207.122,95.200 205.181 C 95.200 203.442,93.041 200.800,91.620 200.800 C 91.206 200.800,90.807 200.626,90.733 200.413 C 90.656 200.187,90.370 200.169,90.049 200.368 C 89.328 200.816,89.830 201.600,90.838 201.600 C 93.241 201.600,94.345 203.961,92.674 205.530 C 91.485 206.648,90.868 206.630,90.425 205.467 C 90.164 204.779,88.800 204.056,88.800 204.605 C 88.800 205.530,90.215 207.186,90.837 206.988 C 91.420 206.803,91.600 206.941,91.600 207.573 C 91.600 208.485,91.193 208.633,90.525 207.965 C 90.212 207.652,90.015 207.652,89.822 207.965 C 89.674 208.204,89.743 208.400,89.976 208.400 C 90.616 208.400,90.484 209.432,89.770 210.025 C 89.028 210.640,88.278 209.869,88.541 208.763 C 88.624 208.412,88.368 207.923,87.972 207.675 C 86.986 207.060,87.075 208.674,88.087 209.775 C 88.898 210.658,88.973 211.046,88.400 211.400 C 87.875 211.724,87.885 214.638,88.414 215.626 C 88.906 216.546,88.454 216.628,87.376 215.813 C 86.378 215.057,86.133 215.058,86.133 215.817 C 86.133 216.156,86.643 216.735,87.267 217.103 C 88.771 217.992,88.703 218.374,86.745 220.014 C 83.549 222.691,83.318 222.761,82.228 221.397 C 81.169 220.071,80.395 220.287,81.140 221.701 C 81.720 222.803,81.260 224.631,79.931 226.497 C 79.422 227.212,79.057 228.023,79.120 228.299 C 79.292 229.048,78.948 228.912,77.818 227.782 C 75.372 225.335,76.932 216.752,79.445 218.837 C 79.800 219.132,80.000 219.148,80.000 218.882 C 80.000 218.654,79.775 218.391,79.500 218.298 C 79.115 218.169,79.133 217.954,79.581 217.365 C 80.037 216.765,80.041 216.708,79.601 217.100 C 78.455 218.121,76.800 217.727,76.800 216.433 C 76.800 215.792,76.575 215.162,76.300 215.033 C 75.900 214.847,75.900 214.753,76.300 214.567 C 76.586 214.433,76.800 213.600,76.800 212.620 C 76.800 211.065,76.948 210.809,78.391 209.853 C 80.706 208.321,81.630 208.925,81.672 211.998 C 81.702 214.156,81.428 214.400,78.976 214.400 C 77.779 214.400,76.800 214.580,76.800 214.800 C 76.800 215.020,77.779 215.200,78.976 215.200 C 81.167 215.200,82.088 215.674,81.065 216.275 C 80.617 216.539,80.665 216.751,81.318 217.400 C 81.761 217.840,82.000 217.983,81.849 217.718 C 81.193 216.564,84.304 214.474,85.000 215.600 C 85.136 215.820,85.401 216.000,85.588 216.000 C 86.092 216.000,85.808 214.669,85.265 214.488 C 84.693 214.298,84.648 212.541,85.207 212.196 C 85.430 212.058,85.492 211.749,85.345 211.511 C 85.197 211.272,85.260 211.190,85.485 211.329 C 86.134 211.730,87.340 210.137,87.010 209.315 C 86.756 208.684,86.621 208.739,85.861 209.781 C 85.387 210.431,84.603 211.376,84.118 211.881 C 83.442 212.585,83.379 212.800,83.846 212.800 C 84.249 212.800,84.412 213.104,84.328 213.700 C 83.969 216.223,82.200 214.754,82.200 211.934 C 82.200 210.468,82.065 209.133,81.900 208.967 C 81.346 208.412,81.593 207.726,82.803 206.459 C 84.035 205.171,85.200 204.803,85.200 205.704 C 85.200 205.981,85.553 206.428,85.985 206.698 C 86.764 207.184,86.798 206.745,86.082 205.447 C 85.673 204.706,85.723 202.187,86.152 201.906 C 86.893 201.420,87.081 201.542,87.742 202.933 C 88.090 203.667,88.650 204.267,88.987 204.267 C 89.779 204.267,89.762 204.152,88.775 202.766 C 87.639 201.170,87.373 199.138,88.106 197.668 C 88.531 196.817,88.581 196.341,88.280 196.040 C 88.045 195.805,87.978 195.488,88.131 195.336 C 88.283 195.183,88.664 195.405,88.976 195.829 C 89.289 196.253,89.397 196.653,89.218 196.718 C 88.836 196.856,89.658 198.792,90.100 198.797 C 90.265 198.799,90.400 198.428,90.400 197.973 C 90.400 196.958,88.509 194.400,87.758 194.400 C 87.457 194.400,86.306 193.500,85.200 192.400 L 83.189 190.400 80.264 190.400 C 77.638 190.400,77.241 190.505,76.370 191.432 M82.300 191.910 C 82.756 192.497,82.800 192.494,82.800 191.876 C 82.800 190.951,83.698 191.024,84.307 192.000 C 84.745 192.700,84.707 192.800,84.003 192.800 C 83.562 192.800,83.200 192.980,83.200 193.200 C 83.200 193.420,83.341 193.600,83.513 193.600 C 83.685 193.600,84.073 194.455,84.375 195.500 C 84.678 196.545,85.006 197.625,85.105 197.900 C 85.397 198.709,84.598 198.475,83.458 197.419 C 82.477 196.509,82.400 196.495,82.400 197.219 C 82.400 198.177,80.998 198.293,80.641 197.364 C 80.314 196.510,80.681 196.000,81.624 196.000 C 82.122 196.000,82.400 195.726,82.400 195.233 C 82.400 194.812,82.612 194.396,82.871 194.310 C 83.134 194.222,83.207 193.934,83.035 193.657 C 82.623 192.990,81.600 193.820,81.600 194.822 C 81.600 195.686,80.103 196.263,79.480 195.640 C 78.861 195.021,78.400 195.093,78.400 195.810 C 78.400 196.145,78.835 196.585,79.366 196.787 C 80.565 197.243,80.997 198.485,80.365 199.666 C 80.010 200.328,80.004 200.601,80.341 200.714 C 80.716 200.839,77.556 202.800,76.979 202.800 C 76.516 202.800,76.829 196.056,77.300 195.886 C 77.700 195.741,77.700 195.535,77.300 194.858 C 75.645 192.054,80.284 189.319,82.300 191.910 M35.104 192.900 C 34.212 194.265,32.727 197.261,32.872 197.404 C 32.942 197.474,33.666 196.286,34.481 194.765 C 35.949 192.022,36.234 191.171,35.104 192.900 M63.241 193.434 C 61.762 194.485,61.801 194.656,63.359 193.946 C 63.907 193.696,64.450 193.246,64.565 192.946 C 64.819 192.285,64.902 192.254,63.241 193.434 M74.095 209.919 L 74.000 226.838 72.900 227.875 C 71.989 228.733,71.953 228.831,72.691 228.447 C 74.374 227.568,74.413 227.114,74.300 209.718 L 74.191 193.000 74.095 209.919 M86.000 194.280 C 86.000 194.607,86.370 194.972,86.823 195.090 C 87.337 195.224,87.562 195.523,87.423 195.885 C 87.300 196.204,87.200 196.721,87.200 197.033 C 87.200 197.345,86.925 197.600,86.590 197.600 C 86.027 197.600,85.281 195.521,85.532 194.651 C 85.587 194.459,85.355 194.408,85.016 194.538 C 84.417 194.768,84.138 193.996,84.639 193.494 C 85.040 193.093,86.000 193.648,86.000 194.280 M121.634 195.400 C 121.634 195.620,121.978 196.430,122.400 197.200 C 122.822 197.970,123.166 198.420,123.166 198.200 C 123.166 197.980,122.822 197.170,122.400 196.400 C 121.978 195.630,121.634 195.180,121.634 195.400 M87.200 199.643 C 87.200 200.279,87.020 200.827,86.800 200.860 C 86.580 200.893,86.175 200.938,85.900 200.960 C 85.625 200.982,85.088 201.495,84.706 202.100 C 84.169 202.952,83.702 203.200,82.639 203.200 C 80.204 203.200,79.948 202.933,80.876 201.361 C 81.323 200.603,81.605 199.663,81.503 199.272 C 81.195 198.096,83.269 198.202,84.595 199.430 C 85.352 200.132,85.626 200.244,85.448 199.781 C 85.121 198.929,85.866 197.974,86.629 198.267 C 86.943 198.387,87.200 199.006,87.200 199.643 M58.800 199.367 C 58.800 199.898,58.575 200.424,58.300 200.535 C 58.001 200.656,58.082 200.750,58.500 200.768 C 59.018 200.792,59.200 200.488,59.200 199.600 C 59.200 198.940,59.110 198.400,59.000 198.400 C 58.890 198.400,58.800 198.835,58.800 199.367 M123.444 200.200 C 123.773 201.671,124.002 201.990,123.994 200.967 C 123.991 200.545,123.805 199.930,123.582 199.600 C 123.285 199.162,123.248 199.324,123.444 200.200 M31.449 201.015 C 31.312 201.373,31.221 202.146,31.246 202.733 C 31.280 203.532,31.370 203.398,31.604 202.200 C 31.935 200.500,31.862 199.940,31.449 201.015 M55.967 201.913 C 54.619 203.117,54.011 205.748,54.675 207.497 C 54.917 208.136,55.013 207.635,55.008 205.754 C 55.000 203.228,55.060 203.064,56.385 201.957 C 57.147 201.321,57.644 200.800,57.491 200.800 C 57.338 200.800,56.652 201.301,55.967 201.913 M124.282 203.621 C 124.408 204.599,124.575 205.475,124.655 205.567 C 124.981 205.942,124.760 202.955,124.421 202.421 C 124.184 202.046,124.135 202.470,124.282 203.621 M85.528 203.931 C 85.622 204.571,85.449 204.800,84.871 204.800 C 83.930 204.800,83.482 203.878,84.116 203.244 C 84.754 202.606,85.377 202.909,85.528 203.931 M77.600 203.813 C 77.600 204.451,76.537 205.070,76.133 204.667 C 76.006 204.539,76.008 204.157,76.138 203.817 C 76.445 203.018,77.600 203.014,77.600 203.813 M80.800 203.967 C 80.800 204.388,80.575 204.824,80.300 204.935 C 79.908 205.093,79.911 205.144,80.313 205.168 C 80.594 205.186,80.929 204.930,81.055 204.600 C 81.262 204.063,83.200 203.704,83.200 204.204 C 83.200 204.316,82.679 204.953,82.042 205.619 C 81.238 206.461,80.951 207.091,81.105 207.678 C 81.257 208.262,81.180 208.435,80.856 208.235 C 80.598 208.075,80.491 207.777,80.617 207.572 C 80.962 207.014,80.304 207.147,79.424 207.813 C 78.123 208.797,77.943 208.479,78.824 206.752 C 79.427 205.572,79.542 204.982,79.232 204.672 C 78.482 203.922,78.760 203.200,79.800 203.200 C 80.519 203.200,80.800 203.416,80.800 203.967 M30.942 207.800 C 30.941 209.780,31.008 210.640,31.092 209.712 C 31.176 208.784,31.177 207.164,31.095 206.112 C 31.012 205.060,30.943 205.820,30.942 207.800 M78.391 205.300 C 78.386 205.575,78.030 206.250,77.600 206.800 L 76.818 207.800 76.809 206.567 C 76.804 205.888,76.920 205.213,77.067 205.067 C 77.518 204.616,78.401 204.771,78.391 205.300 M84.358 208.066 C 83.831 208.759,83.174 209.557,82.897 209.838 C 81.685 211.069,83.349 210.758,84.752 209.491 C 86.028 208.338,86.197 208.010,85.795 207.461 C 85.368 206.877,85.211 206.942,84.358 208.066 M77.183 210.221 C 76.918 210.539,76.544 210.800,76.351 210.800 C 75.832 210.800,75.925 209.435,76.483 208.877 C 77.183 208.177,77.837 209.432,77.183 210.221 M94.400 209.152 C 94.400 209.425,94.220 209.536,94.000 209.400 C 93.171 208.888,93.651 209.852,94.904 211.216 C 95.620 211.994,96.146 212.939,96.073 213.316 C 96.001 213.692,96.135 214.000,96.371 214.000 C 97.217 214.000,96.755 211.770,95.589 210.229 C 94.935 209.365,94.400 208.880,94.400 209.152 M54.116 210.100 C 53.663 210.595,53.183 211.450,53.050 212.000 C 52.813 212.980,52.818 212.979,53.309 211.936 C 53.585 211.351,54.151 210.496,54.567 210.036 C 54.983 209.576,55.237 209.200,55.132 209.200 C 55.026 209.200,54.569 209.605,54.116 210.100 M124.459 211.000 C 124.420 211.660,124.296 212.650,124.183 213.200 L 123.977 214.200 124.408 213.214 C 124.644 212.672,124.768 211.682,124.683 211.014 L 124.528 209.800 124.459 211.000 M31.206 213.233 C 31.209 213.985,31.377 214.861,31.579 215.179 C 31.816 215.554,31.865 215.130,31.718 213.979 C 31.435 211.770,31.198 211.425,31.206 213.233 M92.876 212.250 C 92.973 212.443,93.283 213.185,93.565 213.900 C 93.847 214.615,94.331 215.200,94.639 215.200 C 95.345 215.200,95.313 214.892,94.454 213.428 C 93.852 212.403,92.412 211.328,92.876 212.250 M123.429 215.429 C 123.281 216.015,123.238 216.572,123.332 216.666 C 123.427 216.760,123.624 216.358,123.771 215.771 C 123.919 215.185,123.962 214.628,123.868 214.534 C 123.773 214.440,123.576 214.842,123.429 215.429 M54.076 217.405 C 54.471 217.875,54.814 219.121,54.902 220.405 L 55.052 222.600 55.126 220.362 C 55.188 218.481,55.057 218.003,54.300 217.362 C 53.406 216.605,53.405 216.605,54.076 217.405 M94.582 217.700 C 94.432 218.195,94.150 218.771,93.955 218.980 C 93.760 219.189,93.600 220.008,93.600 220.800 C 93.600 222.277,92.836 224.391,92.300 224.397 C 92.135 224.399,92.000 224.659,92.000 224.976 C 92.000 225.293,91.821 225.664,91.601 225.799 C 91.340 225.961,91.331 225.708,91.576 225.064 C 91.781 224.524,91.841 223.975,91.710 223.843 C 91.180 223.313,91.437 221.109,92.100 220.509 C 92.485 220.161,92.800 219.649,92.800 219.371 C 92.800 219.094,93.006 218.798,93.257 218.714 C 93.509 218.630,93.059 218.543,92.257 218.520 C 91.456 218.498,90.800 218.652,90.800 218.863 C 90.800 219.074,90.978 219.137,91.195 219.003 C 91.437 218.853,91.476 219.064,91.295 219.551 C 90.673 221.220,86.000 223.381,86.000 222.000 C 86.000 221.780,86.135 221.600,86.300 221.600 C 86.465 221.599,87.123 221.149,87.762 220.600 C 88.401 220.050,89.301 219.589,89.762 219.575 C 90.571 219.550,90.569 219.537,89.700 219.188 C 87.810 218.428,88.912 217.017,90.870 217.690 C 91.645 217.956,92.251 217.888,93.070 217.445 C 94.619 216.605,94.899 216.652,94.582 217.700 M122.657 217.884 C 122.523 218.278,122.236 219.005,122.019 219.500 C 121.379 220.964,121.903 220.525,122.634 218.986 C 123.003 218.208,123.214 217.481,123.103 217.370 C 122.992 217.259,122.792 217.490,122.657 217.884 M120.653 222.100 L 119.933 223.400 120.758 222.400 C 121.489 221.513,121.814 220.800,121.486 220.800 C 121.424 220.800,121.049 221.385,120.653 222.100 M91.055 221.800 C 91.483 222.915,90.907 223.685,90.006 223.203 C 89.104 222.720,88.937 221.773,89.700 221.465 C 90.561 221.118,90.818 221.181,91.055 221.800 M34.455 221.800 C 34.893 222.867,36.239 224.795,36.549 224.797 C 36.741 224.799,36.728 224.575,36.521 224.300 C 35.012 222.301,34.315 221.457,34.455 221.800 M55.212 223.106 C 55.205 223.384,55.785 224.202,56.500 224.924 C 57.215 225.646,57.419 225.779,56.954 225.219 C 56.488 224.658,55.908 223.840,55.666 223.400 C 55.423 222.960,55.219 222.828,55.212 223.106 M85.108 223.375 C 85.232 223.499,84.963 223.600,84.509 223.600 C 84.056 223.600,83.582 223.870,83.455 224.200 C 83.119 225.077,81.600 224.968,81.600 224.067 C 81.600 222.890,84.126 222.392,85.108 223.375 M90.351 224.040 C 91.738 225.332,90.592 226.400,87.818 226.400 C 86.686 226.400,85.589 226.563,85.380 226.762 C 83.815 228.254,80.000 229.400,80.000 228.379 C 80.000 227.753,82.129 225.200,82.651 225.200 C 82.899 225.200,83.326 224.930,83.600 224.600 C 83.874 224.270,84.515 224.000,85.025 224.000 C 85.535 224.000,86.064 223.820,86.200 223.600 C 86.657 222.860,89.396 223.151,90.351 224.040 M118.564 225.100 C 117.942 225.925,116.449 227.680,115.245 229.000 L 113.056 231.400 115.651 228.800 C 118.021 226.426,120.316 223.600,119.875 223.600 C 119.776 223.600,119.186 224.275,118.564 225.100 M37.483 226.200 C 39.043 228.445,43.512 232.420,47.249 234.889 C 48.485 235.706,50.816 237.775,52.428 239.487 C 54.040 241.199,54.981 242.060,54.520 241.400 C 53.224 239.546,48.463 235.237,45.019 232.800 C 43.309 231.590,40.726 229.340,39.279 227.800 C 37.833 226.260,37.024 225.540,37.483 226.200 M60.600 227.403 C 61.534 227.728,64.000 227.813,64.000 227.520 C 64.000 227.344,63.145 227.214,62.100 227.232 C 61.055 227.249,60.380 227.326,60.600 227.403 M64.954 228.604 C 66.029 229.406,68.796 229.736,70.417 229.256 C 71.690 228.878,71.641 228.862,69.800 229.058 C 68.523 229.194,67.150 229.049,66.000 228.656 C 64.559 228.164,64.350 228.154,64.954 228.604 M109.726 233.530 C 108.365 234.558,107.105 235.564,106.926 235.765 C 106.468 236.278,110.363 233.656,111.731 232.530 C 113.750 230.869,112.269 231.607,109.726 233.530 M105.200 236.820 L 104.200 237.622 105.300 237.147 C 105.905 236.885,106.400 236.520,106.400 236.336 C 106.400 235.879,106.345 235.902,105.200 236.820 M101.800 239.085 C 100.700 239.849,99.710 240.571,99.600 240.691 C 99.262 241.059,101.331 239.918,102.600 239.036 C 103.260 238.578,103.875 238.157,103.967 238.101 C 104.058 238.046,104.058 237.932,103.967 237.849 C 103.875 237.766,102.900 238.322,101.800 239.085 M97.284 241.866 C 96.340 242.435,95.648 242.981,95.747 243.080 C 95.924 243.257,99.200 241.233,99.200 240.947 C 99.200 240.721,99.117 240.760,97.284 241.866 M91.907 244.938 C 87.933 247.141,87.356 247.736,91.018 245.855 C 93.622 244.518,95.675 243.227,95.200 243.225 C 95.090 243.224,93.608 243.995,91.907 244.938 M56.893 248.000 C 56.893 248.770,56.975 249.085,57.076 248.700 C 57.176 248.315,57.176 247.685,57.076 247.300 C 56.975 246.915,56.893 247.230,56.893 248.000 M86.265 247.847 C 85.640 248.186,85.206 248.539,85.300 248.633 C 85.487 248.820,88.000 247.646,88.000 247.371 C 88.000 247.062,87.418 247.222,86.265 247.847 M83.300 249.396 C 82.585 249.707,82.000 250.056,82.000 250.172 C 82.000 250.419,84.026 249.596,84.580 249.124 C 85.105 248.676,84.814 248.738,83.300 249.396 M54.183 254.700 C 53.794 255.305,52.423 256.994,51.137 258.454 C 49.852 259.913,48.800 261.218,48.800 261.354 C 48.800 261.725,52.122 261.637,52.734 261.249 C 53.043 261.053,52.372 260.997,51.140 261.115 L 49.011 261.320 51.443 258.560 C 53.832 255.848,55.486 253.600,55.092 253.600 C 54.982 253.600,54.573 254.095,54.183 254.700 M72.200 254.378 C 71.320 254.795,70.780 255.136,71.000 255.138 C 71.546 255.142,74.702 253.664,74.200 253.640 C 73.980 253.630,73.080 253.962,72.200 254.378 M68.200 255.978 C 67.320 256.395,66.780 256.736,67.000 256.738 C 67.546 256.742,70.702 255.264,70.200 255.240 C 69.980 255.230,69.080 255.562,68.200 255.978 M63.600 257.600 C 61.215 258.601,62.045 258.616,64.600 257.618 C 65.700 257.189,66.330 256.839,66.000 256.841 C 65.670 256.843,64.590 257.185,63.600 257.600 M59.094 259.085 C 58.045 259.435,57.260 259.794,57.350 259.883 C 57.532 260.065,61.600 258.794,61.600 258.554 C 61.600 258.307,61.121 258.409,59.094 259.085 M54.400 260.400 C 53.596 260.657,53.557 260.723,54.200 260.732 C 54.640 260.738,55.360 260.589,55.800 260.400 C 56.819 259.962,55.768 259.962,54.400 260.400 " stroke="none" fill="#54bcc4" fill-rule="evenodd"></path></g></svg>